<svg viewBox="0 0 357 1150" xmlns="http://www.w3.org/2000/svg">
<path fill-rule="evenodd" clip-rule="evenodd" d="M-377.355 838.847L-374.413 835.388L-372.757 832.821L-365.111 820.407L-363.825 818.03L-360.535 813.687L-357.037 809.878L-347.585 802.991L-346.67 802.607L-336.68 799.474L-324.799 798.381L-315.977 797.172L-305.189 793.445L-304.646 793.171L-295.941 785.66L-291.315 781.458L-287.991 777.722L-280.926 771.739L-279.122 770.033L-277.876 769.162L-268.956 762.644L-265.63 760.692L-257.845 755.465L-253.359 752.638L-246.691 748.314L-241.063 744.418L-235.965 741.062L-228.614 735.741L-217.762 727.216L-206.583 718.578L-203.226 716.203L-195.714 711.376L-190.937 708.146L-185.395 703.989L-177.88 697.278L-175.846 694.941L-170.34 687.648L-166.29 681.398L-164.807 678.959L-160.025 669.746L-155.074 658.819L-150.855 648.407L-148.763 642.771L-146.445 637.979L-144.483 633.722L-138.07 625.235L-131.283 617.043L-125.913 610.199L-123.2 606.454L-118.854 600.295L-115.655 596.282L-112.534 591.877L-105.747 583.587L-103.809 581.466L-98.7309 575.342L-92.9542 568.879L-91.5093 567.12L-85.4024 558.601L-80.4165 549.767L-76.8788 540.518L-75.8478 533.206L-75.3595 530.53L-75.9673 525.176L-76.2862 520.186L-76.8672 517.657L-77.7504 512.182L-78.2461 510.518L-78.428 509.44L-79.9111 503.558L-80.3788 498.83L-81.0051 496.215L-81.7837 488.273L-83.3712 481.623L-83.7189 477.705L-84.4402 474.246L-85.273 464.96L-86.177 459.308L-86.3644 456.763L-86.8838 451.703L-87.1454 446.459L-87.3405 436.091L-87.2784 434.816L-87.3043 426.291L-86.6512 419.736L-86.0376 411.351L-85.831 406.371L-86.4793 396.022L-86.7346 394.943L-88.596 388.861L-89.2898 384.951L-90.7448 382.079L-92.1728 377.44L-93.1446 375.296L-93.4886 373.815L-95.9399 368.991L-98.0426 361.768L-100.839 356.039L-102.14 351.245L-103.14 349.353L-104.093 346.52L-105.939 343.007L-106.965 339.807L-108.85 336.665L-110.471 332.58L-111.834 330.397L-112.805 328.083L-115.146 324.337L-117.125 319.69L-118.17 318.102L-118.972 316.302L-121.477 312.071L-123.649 306.395L-124.103 305.631L-124.447 304.745L-127.245 299.472L-129.338 293.326L-129.86 292.031L-132.849 286.711L-134.833 281.712L-135.563 280.294C-135.813 279.659 -136.035 279.098 -136.256 278.54L-136.333 278.343L-139.241 274.345L-141.946 269.625L-142.777 268.395L-143.488 267.17L-147.357 262.985L-151.251 258.193L-157.099 252.592L-159.282 250.325L-162.586 247.731L-167.573 243.425L-169.608 241.879L-173.67 238.324L-175.639 236.088L-178.702 233.288L-182.827 228.26L-183.315 227.549L-186.871 222.194L-190.1 215.699L-190.183 215.507L-193.183 209.895L-195.976 203.59L-196.605 201.839L-198.913 197.303L-201.387 190.872L-202.444 186.091L-203.142 183.934L-203.404 182.48L-205.043 177.101L-205.749 171.615L-206.509 169.707L-207.176 166.092L-208.254 166.291L-207.492 170.232L-206.774 172.067L-206.152 177.156L-204.5 182.612L-204.239 184.06L-203.527 186.284L-202.478 191.044L-201.531 193.651L-199.952 197.656L-197.66 202.156L-197.025 203.92L-194.199 210.301L-190.948 216.463L-187.884 222.633L-183.695 228.926L-179.597 233.934L-176.497 236.776L-174.537 239.005L-170.363 242.677L-168.346 244.215L-163.312 248.549L-160.12 251.044L-157.903 253.336L-152.158 258.828L-148.235 263.644L-144.364 267.843L-143.74 268.919L-142.908 270.146L-140.213 274.854L-137.271 278.945L-136.605 280.647L-135.869 282.078L-133.895 287.06L-130.947 292.269L-128.319 299.752L-125.503 305.064L-125.173 305.932L-124.714 306.71L-122.538 312.391L-119.994 316.7L-119.21 318.475L-118.179 320.043L-116.192 324.698L-113.853 328.439L-112.883 330.75L-111.531 332.908L-109.906 337L-107.963 340.282L-107.019 343.262L-105.164 346.794L-104.215 349.626L-103.16 351.664L-101.929 356.244L-99.1354 361.968L-98.8908 362.677L-96.9794 369.336L-94.519 374.216L-94.182 375.669L-93.2465 377.698L-91.8262 382.326L-90.2857 385.478L-89.6901 388.991L-87.6262 396.009L-86.9263 406.271L-87.1301 411.275L-87.7414 419.616L-88.3933 426.137L-88.4061 428.032L-88.2386 446.571L-87.9753 451.748L-87.2756 459.335L-86.3707 464.988L-86.2515 466.715L-85.5419 474.29L-84.818 477.743L-84.4767 481.651L-82.8585 488.541C-82.8582 488.594 -82.8726 488.538 -82.8764 488.523L-82.8312 488.758L-82.1124 496.234L-81.4824 498.87L-81.0164 503.59L-79.515 509.588L-79.3419 510.634L-78.8495 512.291L-77.9516 517.805L-77.3937 520.181L-77.0617 525.212L-76.4755 530.676L-76.9176 532.975L-77.9164 540.162L-78.6157 541.844L-81.3344 549.149L-86.2643 557.919L-92.3386 566.401L-93.7641 568.142L-99.5363 574.599L-104.599 580.704L-106.543 582.836L-113.358 591.154L-116.491 595.572L-119.691 599.585L-126.752 609.492L-132.221 616.449L-139.186 624.862L-145.441 633.176L-147.424 637.489L-149.731 642.252L-151.899 648.079L-156.124 658.469L-161.284 669.807L-165.733 678.377L-167.207 680.8L-171.183 686.947L-176.689 694.246L-178.569 696.417L-186.018 703.085L-191.524 707.221L-196.292 710.449L-203.789 715.261L-207.192 717.668L-217.006 725.178L-229.236 734.838L-236.55 740.139L-241.663 743.504L-247.278 747.39L-258.426 754.537L-266.161 759.733L-269.472 761.673C-272.547 763.913 -275.58 766.123 -278.587 768.325L-279.688 769.08L-281.655 770.923L-288.652 776.844L-292.019 780.611L-296.646 784.823L-305.389 792.32L-316.178 796.094L-324.852 797.282L-327.61 797.583C-330.739 797.855 -333.825 798.123 -336.913 798.395L-346.954 801.546L-348.137 802.033L-357.617 808.929L-361.307 812.907L-364.657 817.302L-366.037 819.821L-373.783 832.395C-374.28 833.163 -374.771 833.923 -375.207 834.617L-378.136 838.079L-382.511 842.694L-391.297 849.634L-390.618 850.493L-381.882 843.604L-377.355 838.847Z" fill="#F4F5F6"/>
<path fill-rule="evenodd" clip-rule="evenodd" d="M-399.074 920.494L-396.654 918.237L-390.063 911.805L-385.989 908.765L-378.25 904.903L-374.531 903.326L-368.248 901.794L-363.695 900.531L-359.452 899.869L-352.849 898.11L-340.071 894.92L-330.63 890.909L-326.834 888.224L-317.988 881.797L-316.946 880.783L-313.127 877.925L-307.299 873.285L-295.044 866.442L-293.518 865.684L-283.501 859.355L-281.029 857.168L-276.092 851.062L-273.808 847.156L-270.751 842.31L-266.319 834.819C-266.071 834.383 -265.838 833.974 -265.623 833.586L-260.304 824.975L-258.072 822.109L-254.259 816.505L-246.987 808.406L-244.405 806.262L-238.074 800.689L-235.07 798.553L-227.053 793.551L-223.125 791.424L-211.642 786.226L-198.181 781.08L-188.788 776.615L-184.962 774.313L-176.197 767.654L-174.346 765.744L-167.657 758.723L-162.199 753.291L-159.841 750.724L-156.176 747.26L-151.719 742.784L-148.491 739.821L-134.528 726.737L-126.746 719.077L-121.384 714.007L-108.839 703.57L-99.2199 696.139L-95.5867 693.109L-82.9744 683.734L-79.3006 681.252L-70.504 674.978L-69.0592 673.839L-66.2593 671.33L-60.5344 665.981L-57.1494 662.988L-52.1471 658.207L-44.3717 652.696L-41.4734 650.919L-32.1973 645.009L-30.0209 643.758L-21.8353 635.647L-17.3792 626.583L-15.557 617.978L-15.2634 617.102L-15.2553 617.032L-15.2316 616.949L-14.8413 609.515L-14.4261 607.116L-14.5986 601.308L-14.2225 593.113L-13.7443 587.061L-12.9457 584.481L-11.0228 577.869L-9.54351 574.582L-7.0738 568.758L0.991209 550.642L4.77845 541.506L7.52531 532.743L7.68412 532.106L8.63775 524.029L8.76282 522.168L8.86747 515.866L8.73077 512.033L8.754 507.944L8.27529 500.21L7.37599 492.713L6.07875 485.445L4.92522 480.68L4.8169 478.276L4.03654 470.309L6.86319 461.299L6.88795 461.207L6.95799 461.016L11.6643 452.336L15.6208 443.228L16.3427 439.869L18.0212 433.499L17.9646 430.877L18.5466 423.578L18.4651 422.603L18.8397 414.438L18.9565 413.613L19.8614 405.878L20.2525 403.854L20.2131 397.575L20.2516 393.488L19.2656 389.971L16.7986 383.352L16.2226 382.194L13.1368 377.369L8.72391 371.87L3.7893 366.689L-1.69676 361.837L-10.4665 354.657L-18.883 347.854L-24.3228 343.049L-29.2387 338.023L-33.5203 332.574L-36.8208 327.476L-37.6373 325.99L-40.3509 320.636L-42.4814 315.909L-55.7702 281.974L-58.3189 274.8C-58.7676 273.476 -59.2193 272.148 -59.6648 270.823L-60.4618 268.475L-63.0323 259.833L-64.4303 254.846L-66.5738 245.605L-67.5996 240.763L-68.0578 238.14L-69.1003 233.641L-70.2822 227.557L-71.0677 224.582L-73.2335 216.614L-74.6109 212.769C-75.2646 210.936 -75.9172 209.103 -76.5653 207.27L-77.2925 205.361L-80.0429 199.884L-83.0444 193.651L-86.9766 187.872L-90.2662 182.628C-90.4092 182.417 -90.5437 182.225 -90.6499 182.081L-91.0975 181.333L-95.259 176.615L-97.9372 173.337L-99.7807 171.297L-102.224 168.184L-104.638 166.039L-105.834 164.871L-110.037 161.21L-113.873 157.221L-115.074 156.176L-116.947 154.095L-120.543 151.307L-122.037 149.878L-126.161 146.588L-130.157 142.509L-131.347 141.6L-133.496 139.519L-137.042 136.867L-138.45 135.61L-143.471 132.516L-147.109 129.967L-150.169 128.343L-155.922 124.977L-161.939 121.722L-164.941 120.237L-171.563 116.801L-178.082 112.722L-181.988 109.418L-183.753 108.129L-186.571 105.07L-188.75 103.102L-189.893 101.592L-190.77 102.249L-189.693 103.693L-187.41 105.777L-184.635 108.807L-182.719 110.233L-178.847 113.521L-172.162 117.721L-162.492 122.667L-156.494 125.915L-150.73 129.283L-147.79 130.834L-144.124 133.397L-139.246 136.382L-137.807 137.657L-134.311 140.262L-132.157 142.348L-130.994 143.231L-126.986 147.321L-122.825 150.641L-121.347 152.061L-117.827 154.769L-115.933 156.867L-114.694 157.953L-110.861 161.937L-106.619 165.638L-105.018 167.162C-104.365 167.736 -103.723 168.3 -103.147 168.799L-100.67 171.942L-98.7964 174.02L-96.1136 177.3L-92.0919 181.826L-91.626 182.591L-87.9161 188.44L-84.0722 194.058L-81.0379 200.345L-78.3421 205.69L-78.0322 206.518L-74.3125 216.837L-73.5343 219.82L-71.3696 227.723L-70.1799 233.827L-69.1233 238.444L-68.6835 240.93L-67.1923 248.058L-65.4991 255.082L-62.6808 265.038L-60.7039 271.172L-59.2516 275.452L-56.7972 282.359L-43.5041 316.298L-41.3631 321.056L-37.7715 328.02L-34.4708 333.128L-30.1387 338.653L-28.0931 340.814L-24.943 343.959L-19.6306 348.655L-2.43572 362.646L2.97378 367.423L7.84009 372.525L12.1844 377.92L15.2148 382.641L15.7618 383.718L18.1992 390.233L19.1757 393.81L19.1195 397.548L19.1539 403.771L18.7899 405.639L17.7579 414.238L17.3685 422.493L17.4497 423.409L16.8707 430.742L16.8975 433.551L15.2949 439.547L14.598 442.837L10.7209 451.774L5.85423 460.812L5.81663 460.977L2.9547 470.089L3.12683 472.3L3.11254 472.329L3.71931 478.285L3.81035 480.633L4.9934 485.603L6.28322 492.808C6.42733 494.034 6.56666 495.208 6.7104 496.381L7.18901 500.442L7.22293 501.784L7.65646 507.892L7.63297 511.998L7.77029 515.813L7.67326 522.072L7.55216 523.883L6.48982 532.38L3.75415 541.111L-0.0136317 550.21L-3.99072 559.256L-8.06194 568.283L-10.5356 574.117L-11.9993 577.356L-14.8112 586.795L-15.3134 593.007L-15.6957 601.23L-15.5282 607.056L-15.917 609.267L-16.3253 616.818L-16.5805 617.57L-18.4312 626.271L-18.6712 626.682L-22.8765 635.175L-30.8257 642.979L-32.7223 644.045L-44.9082 651.739L-52.73 657.268L-57.8693 662.161L-61.2547 665.156L-66.9729 670.5L-69.7136 672.958L-71.1261 674.077L-79.8994 680.334L-83.6373 682.855L-96.2208 692.217L-99.8606 695.247L-109.024 702.251L-122.123 713.197L-127.486 718.269L-135.459 726.109L-152.435 741.952L-156.911 746.445L-160.569 749.902L-162.952 752.493L-168.416 757.935L-176.809 766.735L-185.837 773.576L-189.224 775.606L-198.503 780.029L-200.725 780.839L-211.998 785.185L-223.535 790.403L-227.553 792.572L-235.629 797.61L-238.672 799.763L-245.095 805.413L-247.643 807.518L-248.803 808.731L-255.044 815.731L-258.911 821.402L-261.138 824.252L-266.536 832.98L-271.671 841.714L-274.722 846.55L-276.904 850.311L-281.703 856.292L-284.031 858.384L-293.961 864.673L-295.512 865.45L-307.804 872.302L-313.787 877.049L-317.554 879.858L-318.579 880.862L-331.187 889.956L-340.265 893.83L-344.545 894.857L-353.102 897.043L-359.583 898.777L-363.817 899.438L-368.501 900.728L-374.72 902.235L-378.644 903.88L-386.407 907.736L-390.667 910.877L-397.348 917.387L-399.051 918.918L-399.838 919.708L-406.497 926.88L-413.581 933.317L-412.844 934.129L-405.797 927.729L-399.074 920.494Z" fill="#F4F5F6"/>
<path fill-rule="evenodd" clip-rule="evenodd" d="M-407.729 957.692L-397.736 951.204L-395.19 949.241L-388.391 943.522L-382.424 938.676L-378.535 936.364L-370.906 932.459L-361.046 930.787L-351.19 930.729L-341.148 931.545L-331.074 931.749L-325.541 930.617L-318.777 927.779L-313.539 922.977L-299.71 906.478L-290.843 898.98L-278.821 891.632L-268.876 884.542L-265.818 881.744L-260.757 876.238L-257.845 871.619L-254.977 867.383L-250.42 858.233L-246.042 849.586L-240.228 841.228L-232.74 833.218L-223.065 826.12L-220.605 824.635L-213.247 822.074L-209.862 820.824L-207.774 820.5L-199.572 818.893L-189.362 818.311L-182.565 817.145L-177.588 815.515L-170.812 809.415L-165.321 802.259L-164.026 800.764L-162.577 798.737L-158.472 792.136L-156.067 788.819L-152.527 783.669L-145.727 775.631L-137.702 767.684L-129.242 759.883L-120.373 752.216L-109.933 745.066L-108.105 743.932L-83.8147 731.985L-73.4449 727.119L-69.6422 725.675L-61.7063 721.935L-56.445 718.955L-48.5606 712.874L-46.6105 710.981L-39.1366 702.946L-35.0819 698.983L-30.7881 695.368L-23.0863 690.443L-18.9507 688.806L-12.3681 686.72L-1.99112 684.924L2.48849 684.626L8.64386 683.585L20.589 678.5L21.5928 677.042L25.5557 669.001L25.7204 668.626L25.8657 667.129L27.9118 659.084L28.0371 657.792L29.3929 649.07L30.1423 639.045L30.5438 629.109L30.9711 623.952L31.1888 619.338L31.9599 615.571L32.6933 609.837L33.6771 606.789L35.1646 600.604L36.6396 597.297L38.8788 591.668L41.7217 586.493L43.4925 582.957L48.5824 574.706L55.0481 566.157L61.9981 559.042L70.4739 550.05L75.4132 543.196L79.2592 537.27L82.2148 532.889L85.1452 529.701L89.3665 524.727L93.9578 519.726L96.7429 516.526L102.31 507.589L104.305 502.36L106.186 498.065L107.422 492.421L108.667 488.418L108.994 483.247L109.817 478.279L109.519 474.701L109.709 468L109.507 466.575L109.21 463.003L108.558 459.122L108.462 457.379L107.061 451.753L105.888 446.173L104.599 441.791L103.128 437.806L102.198 434.925L100.762 431.014L98.6246 425.962L97.4803 423.499L95.4507 418.425L95.4692 418.371L92.5962 411.908L91.0442 405.057L90.2018 401.671L90.3518 397.964L90.1938 392.18L90.9141 390.121L92.634 383.243L93.8222 380.666L96.3049 373.864L97.255 370.473L98.5944 364.18L98.7684 361.303L98.1521 352.768L94.5776 346.096L89.0825 340.902L84.5296 338.256L81.688 336.757L72.8688 333.513L63.1807 330.998L61.9086 330.775L53.9261 328.45L52.7556 328.173L43.9485 324.264L39.4152 321.575L35.572 318.948L33.454 317.316L28.4269 312.529L24.3281 307.264L20.5509 301.428L17.7716 295.51L15.6577 290.326L12.49 279.503L11.4848 275.452L9.59064 268.523L7.35487 261.656L4.65484 255.053L3.52138 252.858L1.58682 248.753L-1.82945 242.61L-3.30853 240.322L-5.32713 236.7L-10.2225 228.494L-12.1905 224.848L-13.9721 221.396C-14.434 220.497 -14.8936 219.595 -15.32 218.754L-16.7808 215.643L-19.194 209.957L-24.8741 198.255L-27.7567 193.627L-30.366 190.052L-31.7609 187.924L-33.5375 185.552L-33.6584 185.414C-34.6661 184.375 -35.6327 183.386 -36.6388 182.36L-41.9377 177.363L-47.5627 172.508L-49.9359 170.705L-60.8289 163.931L-64.018 162.13L-67.4729 159.837L-72.6409 156.749L-78.5132 152.893L-80.8019 151.578L-89.9797 145.851L-93.7698 143.296L-99.7648 138.958L-102.925 136.311L-105.61 134.34L-111.296 129.786L-114.9 126.441L-116.73 124.956L-120.362 121.565L-122.13 120.112L-122.986 119.3L-128.089 115.429L-131.406 112.627L-134.353 110.825L-140.309 106.884L-147.836 102.691L-149.06 101.883L-154.7 98.7033L-160.907 94.4804L-166.187 89.9542L-170.567 84.7802L-174.123 79.1965L-175.099 77.0069L-177.214 73.1548L-179.678 66.3376L-183.452 67.6917L-180.982 74.5618L-178.735 78.7091L-177.79 80.8539L-173.951 86.9515L-169.182 92.6327L-163.495 97.557L-156.89 102.066L-151.234 105.256L-149.997 106.074L-142.48 110.262L-136.525 114.202L-133.967 115.731L-130.627 118.54L-125.722 122.244L-124.844 123.069L-123.059 124.539L-119.426 127.933L-117.579 129.428L-113.979 132.773L-108.032 137.54L-105.454 139.43L-102.29 142.078L-96.0942 146.57L-92.1924 149.198L-83.4794 154.682L-80.6558 156.288L-74.8765 160.082L-69.6481 163.214L-66.1776 165.514L-62.9328 167.351L-52.3037 173.947L-50.1511 175.58L-44.6697 180.3L-39.4904 185.189L-36.7308 187.998L-35.091 190.166L-33.7001 192.289L-31.1197 195.817L-28.4582 200.071L-22.8733 211.559L-20.459 217.251L-18.9344 220.503L-15.7561 226.701L-13.7402 230.427L-8.82264 238.676L-6.78142 242.333L-5.31273 244.605L-2.02477 250.508L-0.0920227 254.609L0.96686 256.632L3.56101 262.966L5.72064 269.588L7.59637 276.456L8.6037 280.494L11.8261 291.533L14.0762 297.083L17.1401 303.532L21.006 309.516L25.317 315.073L26.6758 316.476L30.8266 320.353L33.1602 322.159L37.1991 324.92L41.9291 327.739L51.2875 331.928L52.8504 332.315L60.8811 334.665L62.2483 334.903L71.574 337.311L79.8328 340.328L82.5643 341.759L86.6326 344.11L91.4642 348.733L94.3059 354.223L94.7509 361.125L94.6503 363.389L93.3756 369.44L92.5095 372.552L90.1499 379.05L88.905 381.713L87.0853 388.929L86.2359 391.33L86.3348 397.869L86.1896 402.073L87.1297 405.953L88.8041 413.337L91.6345 419.629L93.7544 425L97.0083 432.439L98.3966 436.205L99.3225 439.084L100.77 442.991C101.03 443.864 101.28 444.686 101.524 445.484L101.977 447.066L103.136 452.611L104.465 457.799L104.547 459.372L105.22 463.416L105.512 466.979L105.69 468.072L105.501 474.618L105.793 478.114L105.024 482.609L104.73 487.557L103.562 491.315L102.411 496.634L100.557 500.938L98.7958 505.637L93.6798 513.915L90.9849 517.028L86.3792 522.048C84.9461 523.73 83.5263 525.402 82.1726 527.002L79.2277 530.194L75.926 535.033L72.1189 540.904L67.5319 547.307L59.9251 555.339L52.1441 563.377L45.2594 572.456L40.035 580.914L38.1875 584.586L35.3429 589.752L32.9679 595.679L31.4144 599.124L29.8397 605.625L28.806 608.768L28.0125 614.847L27.2425 618.565L26.9677 623.647L26.5324 628.888L26.1462 638.657L25.4104 648.566L24.0593 657.251L23.9952 658.135L21.9549 666.174L21.7955 667.553L18.2521 674.802L17.8568 675.388L7.65844 679.679L2.20015 680.617L-2.28164 680.913L-13.083 682.764L-20.2223 685L-24.6111 686.717L-32.9766 691.995L-37.7248 695.963L-41.9792 700.112L-49.4451 708.137L-51.194 709.848L-58.4645 715.477L-63.4838 718.338L-71.1299 721.946L-74.9292 723.391L-86.5165 728.775L-98.9876 734.884L-109.97 740.377L-112.082 741.676L-122.769 748.993L-131.88 756.861L-140.441 764.75L-148.553 772.781L-155.709 781.223L-159.328 786.478L-161.756 789.828L-165.875 796.45L-167.113 798.198L-168.485 799.785L-173.543 806.454L-179.869 812.081L-183.289 813.185L-189.604 814.294L-199.858 814.881L-208.433 816.54L-210.678 816.891L-222.199 820.938L-225.224 822.736L-235.307 830.141L-243.192 838.513L-249.316 847.246L-254.713 857.803L-258.331 865.162L-261.197 869.407L-263.762 873.556L-268.598 878.848L-271.245 881.294L-281.459 888.536L-293.137 895.707L-302.338 903.43L-307.199 909.242L-311.574 914.379L-316.282 920.029L-321.162 924.462L-326.433 926.687L-331.298 927.728L-340.892 927.54L-350.92 926.725L-361.081 926.763L-372.155 928.623L-380.426 932.821L-384.507 935.233L-390.928 940.41L-397.687 946.097L-399.998 947.888L-409.769 954.233L-410.935 954.908L-422.684 960.735L-420.897 964.332L-409.099 958.477L-407.729 957.692Z" fill="#F4F5F6"/>
<path fill-rule="evenodd" clip-rule="evenodd" d="M-415.145 978.683L-412.469 977.123L-403.441 972.687L-399.447 970.44L-388.586 963.2L-378.742 956.428L-367.819 952.798L-357.899 952.29L-347.948 953.14L-338.142 954.237L-334.897 954.281L-327.941 954.59L-316.858 951.739L-308.569 944.066L-302.715 936.828L-301.413 934.976L-296.035 927.205L-289.315 920.011L-288.619 919.142L-287.782 918.406L-278.424 911.756L-275.459 909.927L-265.758 905.034L-253.765 898.109L-251.353 895.882L-246.285 889.82L-244.3 885.954L-241.372 880.924L-238.545 874.605L-233.083 863.466L-232.059 861.721L-226.745 854.518L-218.366 848.228L-216.493 847.471L-207.57 845.046L-201.311 845.101L-197.767 844.99L-189.429 846.146L-179.213 848.128L-178.465 848.349L-173.628 848.863L-168.315 848.821L-168.169 848.736L-168 848.724L-158.861 842.24L-155.15 834.46L-154.3 833.243L-151.421 823.991L-150.118 820.17L-148.161 814.348L-144.119 805.87L-142.023 802.85L-138.474 797.294L-131.43 789.084L-130.71 788.366L-123.74 781.026L-118.231 776.102L-114.688 773.387L-105.925 767.565L-94.2638 761.77L-82.8676 756.77L-71.762 752.909L-55.5177 748.832L-49.8308 746.777L-40.8306 742.583L-37.9783 740.613L-29.8521 735.344L-25.5547 731.988L-19.812 727.944L-13.4279 724.056L-7.29481 721.284L-2.15028 719.798L1.09794 720.017L7.63158 719.888L19.748 724.906L25.3994 728.294L25.5391 728.307L25.6666 728.371L27.8589 728.444L34.8644 731.06L35.0926 730.958L35.3351 731.018L45.2445 725.11L45.3223 724.91L45.4944 724.782L47.7146 716.941L48.5976 715.684L48.616 715.52L48.6989 715.386L48.9631 708.189L49.8062 705.727L49.8064 705.626L49.8341 705.528L49.578 699.903L50.1301 695.574L50.0338 691.561L50.3884 685.481L51.2132 674.937L52.0293 666.461L53.2697 657.709L53.2746 657.695L53.4404 656.052L54.8947 648.881L55.1793 646.46L57.0299 639.698L57.4677 636.865L60.1106 629.975L60.685 627.671L60.7316 627.587L65.4704 618.971L65.6223 618.873L72.3734 610.807L79.6617 603.329L101.01 588.148L104.968 584.58L109.222 580.141L115.822 571.779L119.725 567.183L123.397 563.706L132.182 558.373L136.629 557.272L142.816 555.584L149.954 554.147L153.434 553.647L156.701 552.561L156.816 552.426L156.974 552.363L159.758 548.534L163.891 544.165L163.909 543.945L164.044 543.784L164.081 537.725L164.956 533.75L163.733 529.962L162.747 522.976L162.251 521.705L159.929 516.129L158.914 511.917L157.653 509.348L155.17 502.929L154.652 500.658L153.091 496.095L151.102 488.039L149.646 479.189L149.311 474.398L148.562 468.679L148.721 466.838L148.427 460.41L148.434 458.793L149.154 450.635L149.085 448.614L150.249 442.058L150.392 438.886L151.916 433.149L152.419 429.522L152.446 429.451L154.534 423.557L155.41 420.189L159.084 413.127L159.949 411.301L162.317 408.286L167.121 403.291L173.997 394.728L176.319 385.208L176.207 374.928L175.995 371.242L176.114 364.636L175.729 363.305L174.447 356.09L174.117 353.879L167.938 342.103L164.812 337.4L159.193 329.61L156.783 326.076L154.673 323.333L152.691 320.456L148.399 314.919L143.635 309.646L139.181 305.28L138.364 304.622L136.312 303.118L130.607 299.176L121.793 294.195L118.051 292.335L112.935 289.524L110.779 288.556L104.021 285.018L95.9171 281.227L95.067 280.742L88.8191 277.417L86.3964 275.741L82.8223 273.079L77.9884 267.76L77.7056 267.286L74.4657 262.189L69.3551 249.178L67.9962 244.545L67.0562 242.457L65.975 239.642L63.1735 233.083L59.3959 226.275L56.0403 220.97L51.9763 215.95L49.0448 212.704L44.0998 207.41L38.5282 202.79L35.8615 200.38L33.06 197.989L27.7147 192.934L22.1657 188.274L16.6906 183.459L10.315 178.237L4.32113 174.548L2.4923 173.723L-2.92105 170.731L-6.44855 169.326L-10.6243 167.186L-15.462 165.234L-18.4324 163.723L-24.451 161.085L-26.1099 160.191L-34.0524 156.2L-42.4066 152.391L-49.0149 149.496L-51.4234 148.331L-56.7487 145.975L-60.4058 144.163L-64.2803 142.354L-69.3385 139.82L-78.1414 135.132L-80.6672 133.596L-85.6494 130.818L-92.1645 126.671L-98.1778 122.236L-103.765 117.322L-103.249 116.798L-103.25 116.797L-103.854 117.203C-103.844 117.221 -103.811 117.264 -103.756 117.312L-109.197 112.701L-111.723 110.034L-114.411 107.729L-119.72 102.353L-125.011 97.873L-127.923 94.9926L-130.634 93.0931L-136.297 88.3617L-142.46 83.9756L-144.712 82.0664L-148.299 79.4232L-153.5 74.5609L-154.443 73.4112L-158.092 69.2916L-160.394 65.7553L-161.723 63.5161L-164.474 57.1583L-166.48 51.004L-168.259 43.4535L-168.938 39.4053L-169.366 36.1581L-169.881 29.0482L-169.955 26.5119L-171.05 26.52L-171.049 26.5187L-171.755 26.3295L-171.05 26.5225L-170.974 29.0927L-170.461 36.2116L-170.025 39.5399L-169.348 43.6038L-167.733 50.6871L-165.535 57.4524L-162.765 63.8811L-161.346 66.2997L-159.057 69.831L-154.409 75.1933L-149.095 80.185L-145.438 82.8871L-143.201 84.7881L-137.01 89.1963L-131.367 93.912L-128.757 95.7242L-125.807 98.6278L-120.277 103.376L-115.232 108.463L-112.551 110.756L-110.023 113.424L-104.291 118.301L-98.9394 123.029L-92.8398 127.538L-86.2397 131.742L-81.2597 134.518L-78.7137 136.069L-69.8414 140.793L-64.777 143.328L-60.9004 145.14L-57.2424 146.953L-51.914 149.313L-49.4016 150.53L-41.7025 153.93L-33.7898 157.568L-25.0075 162.033L-18.9544 164.686L-15.9974 166.192L-11.1672 168.143L-6.99141 170.282L-3.50371 171.667L1.92808 174.665L3.69194 175.452L9.63574 179.098L10.5082 179.764L15.946 184.264L21.4258 189.082L27.3384 194.058L32.2825 198.762L35.1183 201.185L37.7728 203.585L43.548 208.375L51.1143 216.628L55.0913 221.528L58.4245 226.787L62.1401 233.457L64.9402 240.006L66.0191 242.825L66.9192 244.793L68.29 249.445L70.8155 255.94L70.2035 256.365L70.8828 256.098L73.3987 262.508L77.1189 268.441L81.9412 273.759L85.7264 276.607L88.1465 278.288L95.3385 282.162L102.963 285.768L110.246 289.514L112.366 290.464L117.51 293.287L121.238 295.142L129.981 300.075L138.374 306.027L142.809 310.369L147.511 315.563L151.775 321.057L153.752 323.929L155.856 326.666L158.272 330.205L159.873 332.35L161.112 334.163L163.887 337.989L166.946 342.578L173.122 354.443L173.356 356.201L174.643 363.474L175.033 364.968L174.898 371.186L175.109 374.907L175.213 385.129L172.965 394.343L166.353 402.51L161.556 407.496L158.997 410.744L158.123 412.596L154.323 419.972L153.455 423.318L151.394 429.135L151.384 429.222L151.355 429.281L150.868 432.808L149.298 438.741L149.175 441.794L147.982 448.559L148.061 450.454L147.339 458.92L147.33 460.391L147.628 466.685L147.46 468.721L148.214 474.442L148.548 479.224L150.018 488.194L150.384 489.881L152.017 496.326L153.568 500.846L154.077 503.107L156.615 509.701L157.881 512.31L158.839 516.316L161.731 523.459L162.626 530.035L163.864 533.937L162.981 537.612L162.945 543.569L159.001 547.729L156.188 551.579L153.36 552.538L149.82 553.059L142.625 554.503L136.236 556.23L131.571 557.421L122.71 562.843L119.003 566.351L115.003 571.05L108.464 579.344L104.249 583.751L100.416 587.22L79.0594 602.399L71.6164 610.009L64.6672 618.326C64.6404 618.356 64.6202 618.381 64.6032 618.399L64.4315 618.686L59.6934 627.204L59.674 627.277L59.6384 627.36L59.1049 629.526L56.4224 636.529L56.4066 636.613L56.3703 636.698L55.9828 639.359L54.1355 646.098L53.8283 648.629L52.3744 655.788L50.9388 666.348L50.0335 675.448L49.2973 685.386L48.9417 691.47L49.0443 695.354L48.4879 699.679L48.7377 705.467L47.9019 707.907L47.8727 708.076L47.6106 715.185L46.616 716.659L44.4962 724.28L35.0022 729.941L28.1581 727.387L28.0638 727.379L27.9802 727.351L25.8435 727.281L20.3782 723.998L7.95181 718.832L7.8361 718.829L7.72227 718.79L1.21361 718.926L-2.48638 718.708L-7.54963 720.211L-13.824 723.026L-20.3575 726.992L-26.169 731.082L-30.4213 734.405L-38.5526 739.678L-41.2234 741.546L-50.1629 745.727L-55.7382 747.757L-71.9993 751.836L-74.8658 752.795L-83.1963 755.723L-94.6787 760.755L-106.37 766.557L-115.263 772.45L-118.871 775.21L-124.441 780.18L-132.161 788.256L-139.266 796.521L-142.915 802.219L-144.975 805.162L-149.32 814.206L-152.547 823.816L-153.263 823.646L-152.57 823.857L-155.404 832.945L-155.982 833.72L-159.787 841.641L-168.493 847.728L-173.462 847.776L-178.058 847.313L-178.847 847.089L-189.248 845.067L-197.542 843.904L-201.276 844.006L-207.893 843.968L-216.72 846.392L-218.931 847.276L-219.497 846.765L-219.058 847.349L-227.662 853.867L-232.912 861.027L-233.786 862.39L-239.528 874.123L-242.295 880.323L-245.235 885.377L-247.218 889.23L-252.062 895.038L-254.432 897.226L-266.225 904.042L-275.924 908.934L-278.975 910.808L-288.381 917.484L-289.269 918.24L-290.091 919.233L-296.795 926.403L-303.536 936.093L-309.269 943.212L-317.565 950.899L-328.227 953.505L-334.833 953.188L-337.964 953.151L-347.841 952.048L-352.63 951.649C-354.332 951.494 -356.027 951.344 -357.721 951.194L-368.181 951.737L-379.324 955.477L-389.172 962.276L-391.771 963.95L-399.956 969.468L-403.899 971.69L-412.923 976.12L-415.67 977.721C-418.547 979.573 -421.404 981.412 -424.256 983.255L-424.389 983.382L-429.096 989.632L-428.22 990.291L-423.473 984.057C-420.689 982.256 -417.904 980.46 -415.145 978.683Z" fill="#F4F5F6"/>
<path fill-rule="evenodd" clip-rule="evenodd" d="M-420.471 1014.37L-419.12 1010.45L-417.937 1005.22L-414.139 999.691L-412.394 996.624L-409.195 993.806L-403.307 989.268L-396.941 985.581L-385.217 979.29L-376.973 976.089L-373.798 974.753L-368.907 973.978C-367.118 973.666 -365.328 973.355 -363.535 973.047L-363.33 973.04L-353.772 974.137L-344.186 976.095L-334.232 977.033L-323.952 976.66L-312.873 973.453L-312.746 973.329L-312.573 973.279L-312.167 972.936L-304.514 964.968L-299.506 957.446L-298.649 956.358L-297.344 954.283L-293.675 947.604L-291.818 944.994L-288.057 939.087L-281.389 931.985L-280.325 931.147L-269.38 925.03L-267.193 924.595L-258.782 922.59L-247.595 919.525L-239.143 911.663L-233.339 903.012L-232.714 901.873L-227.313 891.735L-224.151 885.256L-220.601 879.903L-218.695 876.48L-214.638 872.128L-209.298 869.161L-203.46 867.448L-199.799 867.83L-193.73 867.793L-188.707 869.327L-184.437 870.133L-179.503 871.955L-170.761 874.837L-165.942 876.816L-161.582 877.504L-156.471 879.332L-156.317 879.309L-156.167 879.352L-146.985 877.345L-145.651 877.379L-145.485 877.255L-145.274 877.236L-144.386 876.425L-144.333 876.17L-144.133 875.989L-144.093 875.476L-144.052 875.375L-140.719 866.957L-140.713 866.835L-140.665 866.716L-140.694 865.461L-139.148 857.148L-138.501 852.283L-138.133 848.186L-137.93 847.403L-136.892 839.427L-134.424 828.181L-131.357 819.016L-126.712 810.24L-125.955 809.289L-120.394 801.858L-113.133 794.747L-112.13 794.021L-101.182 787.616L-89.7228 782.648L-78.5552 778.177L-67.7337 775.948L-65.9372 776.174L-58.0894 776.932L-56.4002 776.943L-48.1507 778.253L-42.081 776.787L-37.442 775.935L-34.0048 774.488L-25.7044 770.377L-21.4917 767.671L-13.3728 762.297L-10.7863 760.435L-1.12169 754.433L1.48066 753.752L9.03984 752.852L11.3164 753.736L18.3964 755.205L18.4926 755.256L27.1379 760.004L35.7933 765.319L42.283 767.666L44.9605 769.039L45.078 769.05L45.1855 769.099L53.2873 769.49L54.9464 769.958L55.1178 769.904L55.3009 769.936L58.0221 768.791L58.1239 768.631L58.2921 768.543L59.7722 765.799L64.7843 760.295L64.8154 760.104L64.9264 760.014L65.9622 754.163L67.562 750.758L67.5737 750.625L67.6269 750.536L68.0581 745.006L69.0389 740.921L69.1509 736.298L69.6973 730.904L69.5662 717.447L69.3381 712.208L69.6388 704.025L69.6395 700.587L70.2211 695.751L70.3525 690.531L71.0854 687.32L71.7814 680.933L72.7045 678.428L74.2721 671.557L75.8812 668.702L78.4105 662.538L82.9877 656.661L84.5611 654.165L87.1929 651.558L94.2858 646.943L99.078 644.395C101.829 643.022 104.57 641.659 107.31 640.301L110.773 638.546L118.782 633.195L128.886 625.765L135.927 620.499L139.79 618.68L147.225 615.711L159.143 613.798L168.184 612.464L175.764 611.048L178.819 610.553L182.062 609.796L190.086 607.006L195.447 603.123L200.73 596.654L202.44 594.848C202.451 594.829 202.461 594.812 202.472 594.798L204.558 591.171L207.065 585.73L210.604 576.525L211.292 574.452L213.471 567.128L214.076 564.828L215.425 557.53L215.844 555.822L216.824 547.856L217.008 547.179L218.162 537.841L219.942 529.494L219.97 528.337L223.671 519.44L223.677 519.443L223.769 519.243L230.028 511.034L237.682 504.891L239.387 503.624L250.378 496.301L258.568 488.409L263.564 480.529L264.179 479.709L265.929 475.432L267.794 470.398L270.239 460.883L271.893 451.191L272.869 443.078L273.187 441.293L273.204 441.252L273.984 434.421L274.427 431.583L275.79 421.878L276.747 416.866L277.416 412.199L278.31 407.989L278.981 402.505L279.638 399.237L280.111 392.674L280.397 390.796L280.166 382.683L278.812 375.39L276.594 371.245C276.325 370.49 276.104 369.839 275.889 369.191L275.79 369.015L274.473 367.435L271.567 363.33L266.422 359.386L265.752 358.769L263.274 357.298L259.353 354.42L257.777 353.583L252.665 350.269L249.105 348.242L246.061 346.152L240.639 342.186L239.069 340.756L235.296 336.606L232.966 333.596L231.243 331.01L225.926 322.221L224.191 319.13L220.417 313.284L216.056 307.778L210.969 302.641L205.283 297.904L202.429 296.029L199.104 293.47L193.849 290.285L192.498 289.294L185.71 285.181L179.132 281.025L176.483 279.479L172.64 276.806L167.934 273.71L166.332 272.497L150.99 261.303L147.876 259.214L135.761 250.305L130.074 245.644L124.773 240.779L122.839 238.741L119.73 235.743L118.03 233.792L115.04 230.557L111.531 225.636L110.469 224.357L106.638 219.431L102.312 213.052L95.2773 205.34L93.1407 203.138L89.2974 199.38L87.1371 197.662L78.6565 191.505L66.4999 183.115L55.9031 176.645L49.3935 172.453L44.2355 168.906L39.1351 165.655L35.4749 163.634L28.5654 160.424L26.3764 159.577L20.0696 157.308L10.4506 154.844L7.50636 154.431L0.35491 152.689L-2.01419 152.35L-9.23467 150.266L-11.425 149.764L-18.1857 147.479L-20.6999 146.706L-29.8747 143.125L-42.4857 137.661L-47.9099 135.003L-50.0486 134.059L-59.9711 128.968L-65.7684 126.227L-72.3269 123.012L-79.298 119.107L-85.7286 114.899L-91.7886 110.139L-97.1089 105.628L-99.7529 102.735L-102.088 100.545L-105.367 96.6493L-106.67 95.2491L-107.511 94.115L-111.487 90.0028L-115.306 85.3597L-121.037 79.5417L-123.194 77.0201L-126.135 74.4515L-136.212 64.4061L-139.09 60.8866L-140.684 59.0782L-144.504 53.3933L-147.509 47.2214L-149.809 40.636L-151.493 32.4753L-152.449 26.2514L-152.632 23.5451L-153.302 18.774L-153.584 13.1818L-153.831 11.1182L-154.087 3.0083L-155.186 2.93753L-155.19 3.2483L-154.931 11.1114L-154.68 13.2173L-154.402 18.7979L-153.733 23.5715L-153.547 26.2933L-152.435 33.6712L-150.898 40.8034L-148.575 47.5142L-145.527 53.81L-141.639 59.6309L-139.949 61.5696L-137.101 65.0569L-126.934 75.2068L-124.074 77.6879L-121.893 80.2295L-116.199 86.0107L-112.358 90.6702L-108.438 94.714L-107.586 95.8606L-106.216 97.3428L-102.965 101.212L-100.591 103.443L-97.963 106.325L-92.2074 111.217L-86.4466 115.733L-79.9382 120.001L-75.2962 122.578L-75.244 122.588L-75.1205 122.677L-72.8922 123.952L-65.4416 127.643L-60.4922 129.933L-50.5749 135.019L-48.398 135.985L-42.9903 138.634L-30.3114 144.129L-21.146 147.711L-18.5532 148.51L-11.8231 150.79L-9.56099 151.313L-2.3831 153.392L0.0488354 153.746L7.19816 155.487L10.118 155.896L19.6556 158.328L28.0744 161.406L34.9245 164.583L38.5214 166.565L42.4066 169.046L48.7496 173.34L55.2878 177.551L65.839 183.992L77.9971 192.381L86.4579 198.522L88.4992 200.134L92.3393 203.889L94.473 206.082L101.366 213.619L101.824 214.279L105.706 220.014L110.602 226.228L114.104 231.145L118.873 236.431L122.024 239.478L123.95 241.506L129.305 246.426C130.691 247.562 132.05 248.671 133.406 249.775L135.041 251.131L147.22 260.09L150.34 262.183L167.249 274.566L171.999 277.693L175.832 280.361L178.513 281.93L184.664 285.877L187.229 287.379L191.818 290.155L193.161 291.143L198.396 294.311L201.725 296.872L204.531 298.708L210.088 303.345L215.154 308.41L219.474 313.848L223.222 319.646L224.955 322.735L230.294 331.562L232.035 334.178L234.402 337.247L238.226 341.46L239.918 343.012L245.4 347.025L248.446 349.123L252.047 351.175L257.14 354.479L258.644 355.268L262.587 358.156L265.11 359.667L265.643 360.163L270.901 364.242L273.549 368.033L274.926 369.761L275.524 371.532L277.823 375.931L279.018 382.668L279.113 384.275L279.312 390.543L279.031 392.461L278.571 398.964L277.912 402.254L277.246 407.726L276.351 411.947L275.673 416.632L274.718 421.641L272.902 434.233L272.091 441.351L272.071 441.39L271.797 442.84L270.702 451.428L269.214 460.292L266.777 469.989L264.923 475.002L263.202 479.183L262.705 479.845L257.694 487.729L256.841 488.548C254.566 490.743 252.288 492.936 250.007 495.125L249.549 495.574L238.811 502.687L237.035 504.005L229.221 510.277L222.746 518.786L222.73 518.904L222.621 519.101L218.914 528.016L218.91 528.115L218.88 528.195L218.861 529.321L217.044 537.947L215.967 546.807L215.782 547.485L214.787 555.501L214.364 557.243L213.023 564.519L212.425 566.794L209.593 576.095L206.084 585.235L203.619 590.6L201.579 594.162L199.953 595.875L194.666 602.335L189.413 606.105L181.858 608.714L178.677 609.464L175.593 609.967L168.041 611.376L157.505 612.913L146.915 614.654L139.405 617.653L135.343 619.561L128.247 624.874L118.193 632.27L110.322 637.539L98.6035 643.405L93.806 645.954L86.4818 650.711L83.6823 653.494L82.1489 655.947L77.3653 662.133L74.9509 668.109L73.2211 671.24L71.6782 678.038L70.7316 680.615L70.7198 680.704L70.6894 680.778L70.0211 687.027L69.2548 690.412L69.1348 695.575L68.5542 700.402L68.5425 703.956L68.2429 712.145L68.5317 720.682L68.5309 727.951L68.6109 730.728L68.0597 736.15L67.9397 740.798L67.0016 744.679L66.528 750.382L64.9395 753.765L63.8679 759.674L58.853 765.179L57.4163 767.856L55.0555 768.851L53.5242 768.421L45.3577 768.012L42.8331 766.713L36.2644 764.321L34.8416 763.405L28.1685 759.283L18.8481 754.204L18.7725 754.187L18.7024 754.153L11.7929 752.733L9.30939 751.781L9.1661 751.791L9.04093 751.748L1.41489 752.647L-1.73946 753.488L-11.3463 759.49L-13.9738 761.38L-26.1453 769.368L-34.4148 773.473L-37.7776 774.882L-42.387 775.729L-48.4426 777.137L-56.1446 775.865L-57.9464 775.844L-68.0007 774.844L-68.627 774.976C-71.9475 775.673 -75.2764 776.366 -78.6047 777.056L-78.8005 777.107L-90.1076 781.623L-101.588 786.593L-112.651 793.054L-113.714 793.808L-121.115 801.017L-127.52 809.478L-128.744 811.709L-132.296 818.421L-135.449 827.783L-135.966 830.003L-137.959 839.153L-138.979 847.056L-139.179 847.814L-139.583 852.11L-140.201 856.442L-141.781 865.308L-141.777 866.655L-145.144 875.153L-145.152 875.266L-145.193 875.346L-145.218 875.63L-145.847 876.278L-147.117 876.248L-156.249 878.247L-161.12 876.491L-165.583 875.781L-170.308 873.836L-179.107 870.93L-183.98 869.125L-188.337 868.288L-193.487 866.723L-193.579 866.721L-193.656 866.698L-199.635 866.741L-203.822 866.354L-209.749 868.154L-215.496 871.385L-219.606 875.854L-221.493 879.26L-225.038 884.601L-228.267 891.197L-229.555 893.517L-234.171 902.283L-234.521 902.756L-239.999 910.962L-248.272 918.626L-259.016 921.521L-267.379 923.515L-269.961 924.056L-280.804 930.153L-281.999 931.057L-288.804 938.265L-292.697 944.335L-294.541 946.917L-299.481 955.638L-300.343 956.735L-305.25 964.129L-313.118 972.362L-313.98 972.584L-324.151 975.571L-334.043 975.936L-343.852 975.041L-345.098 974.741L-353.536 973.066L-355.617 972.792L-363.539 971.936L-370.043 973.063L-374.123 973.693L-377.363 975.063L-385.562 978.241L-397.432 984.597L-403.805 988.283L-409.841 992.918L-413.406 996.097L-415.022 999.035L-418.986 1004.87L-420.146 1010.05L-421.533 1014.09L-420.471 1014.37Z" fill="#F4F5F6"/>
<path class='test'  d="M-420.471 1014.37L-419.12 1010.45L-417.937 1005.22L-414.139 999.691L-412.394 996.624L-409.195 993.806L-403.307 989.268L-396.941 985.581L-385.217 979.29L-376.973 976.089L-373.798 974.753L-368.907 973.978C-367.118 973.666 -365.328 973.355 -363.535 973.047L-363.33 973.04L-353.772 974.137L-344.186 976.095L-334.232 977.033L-323.952 976.66L-312.873 973.453L-312.746 973.329L-312.573 973.279L-312.167 972.936L-304.514 964.968L-299.506 957.446L-298.649 956.358L-297.344 954.283L-293.675 947.604L-291.818 944.994L-288.057 939.087L-281.389 931.985L-280.325 931.147L-269.38 925.03L-267.193 924.595L-258.782 922.59L-247.595 919.525L-239.143 911.663L-233.339 903.012L-232.714 901.873L-227.313 891.735L-224.151 885.256L-220.601 879.903L-218.695 876.48L-214.638 872.128L-209.298 869.161L-203.46 867.448L-199.799 867.83L-193.73 867.793L-188.707 869.327L-184.437 870.133L-179.503 871.955L-170.761 874.837L-165.942 876.816L-161.582 877.504L-156.471 879.332L-156.317 879.309L-156.167 879.352L-146.985 877.345L-145.651 877.379L-145.485 877.255L-145.274 877.236L-144.386 876.425L-144.333 876.17L-144.133 875.989L-144.093 875.476L-144.052 875.375L-140.719 866.957L-140.713 866.835L-140.665 866.716L-140.694 865.461L-139.148 857.148L-138.501 852.283L-138.133 848.186L-137.93 847.403L-136.892 839.427L-134.424 828.181L-131.357 819.016L-126.712 810.24L-125.955 809.289L-120.394 801.858L-113.133 794.747L-112.13 794.021L-101.182 787.616L-89.7228 782.648L-78.5552 778.177L-67.7337 775.948L-65.9372 776.174L-58.0894 776.932L-56.4002 776.943L-48.1507 778.253L-42.081 776.787L-37.442 775.935L-34.0048 774.488L-25.7044 770.377L-21.4917 767.671L-13.3728 762.297L-10.7863 760.435L-1.12169 754.433L1.48066 753.752L9.03984 752.852L11.3164 753.736L18.3964 755.205L18.4926 755.256L27.1379 760.004L35.7933 765.319L42.283 767.666L44.9605 769.039L45.078 769.05L45.1855 769.099L53.2873 769.49L54.9464 769.958L55.1178 769.904L55.3009 769.936L58.0221 768.791L58.1239 768.631L58.2921 768.543L59.7722 765.799L64.7843 760.295L64.8154 760.104L64.9264 760.014L65.9622 754.163L67.562 750.758L67.5737 750.625L67.6269 750.536L68.0581 745.006L69.0389 740.921L69.1509 736.298L69.6973 730.904L69.5662 717.447L69.3381 712.208L69.6388 704.025L69.6395 700.587L70.2211 695.751L70.3525 690.531L71.0854 687.32L71.7814 680.933L72.7045 678.428L74.2721 671.557L75.8812 668.702L78.4105 662.538L82.9877 656.661L84.5611 654.165L87.1929 651.558L94.2858 646.943L99.078 644.395C101.829 643.022 104.57 641.659 107.31 640.301L110.773 638.546L118.782 633.195L128.886 625.765L135.927 620.499L139.79 618.68L147.225 615.711L159.143 613.798L168.184 612.464L175.764 611.048L178.819 610.553L182.062 609.796L190.086 607.006L195.447 603.123L200.73 596.654L202.44 594.848C202.451 594.829 202.461 594.812 202.472 594.798L204.558 591.171L207.065 585.73L210.604 576.525L211.292 574.452L213.471 567.128L214.076 564.828L215.425 557.53L215.844 555.822L216.824 547.856L217.008 547.179L218.162 537.841L219.942 529.494L219.97 528.337L223.671 519.44L223.677 519.443L223.769 519.243L230.028 511.034L237.682 504.891L239.387 503.624L250.378 496.301L258.568 488.409L263.564 480.529L264.179 479.709L265.929 475.432L267.794 470.398L270.239 460.883L271.893 451.191L272.869 443.078L273.187 441.293L273.204 441.252L273.984 434.421L274.427 431.583L275.79 421.878L276.747 416.866L277.416 412.199L278.31 407.989L278.981 402.505L279.638 399.237L280.111 392.674L280.397 390.796L280.166 382.683L278.812 375.39L276.594 371.245C276.325 370.49 276.104 369.839 275.889 369.191L275.79 369.015L274.473 367.435L271.567 363.33L266.422 359.386L265.752 358.769L263.274 357.298L259.353 354.42L257.777 353.583L252.665 350.269L249.105 348.242L246.061 346.152L240.639 342.186L239.069 340.756L235.296 336.606L232.966 333.596L231.243 331.01L225.926 322.221L224.191 319.13L220.417 313.284L216.056 307.778L210.969 302.641L205.283 297.904L202.429 296.029L199.104 293.47L193.849 290.285L192.498 289.294L185.71 285.181L179.132 281.025L176.483 279.479L172.64 276.806L167.934 273.71L166.332 272.497L150.99 261.303L147.876 259.214L135.761 250.305L130.074 245.644L124.773 240.779L122.839 238.741L119.73 235.743L118.03 233.792L115.04 230.557L111.531 225.636L110.469 224.357L106.638 219.431L102.312 213.052L95.2773 205.34L93.1407 203.138L89.2974 199.38L87.1371 197.662L78.6565 191.505L66.4999 183.115L55.9031 176.645L49.3935 172.453L44.2355 168.906L39.1351 165.655L35.4749 163.634L28.5654 160.424L26.3764 159.577L20.0696 157.308L10.4506 154.844L7.50636 154.431L0.35491 152.689L-2.01419 152.35L-9.23467 150.266L-11.425 149.764L-18.1857 147.479L-20.6999 146.706L-29.8747 143.125L-42.4857 137.661L-47.9099 135.003L-50.0486 134.059L-59.9711 128.968L-65.7684 126.227L-72.3269 123.012L-79.298 119.107L-85.7286 114.899L-91.7886 110.139L-97.1089 105.628L-99.7529 102.735L-102.088 100.545L-105.367 96.6493L-106.67 95.2491L-107.511 94.115L-111.487 90.0028L-115.306 85.3597L-121.037 79.5417L-123.194 77.0201L-126.135 74.4515L-136.212 64.4061L-139.09 60.8866L-140.684 59.0782L-144.504 53.3933L-147.509 47.2214L-149.809 40.636L-151.493 32.4753L-152.449 26.2514L-152.632 23.5451L-153.302 18.774L-153.584 13.1818L-153.831 11.1182L-154.087 3.0083L-155.186 2.93753L-155.19 3.2483L-154.931 11.1114L-154.68 13.2173L-154.402 18.7979L-153.733 23.5715L-153.547 26.2933L-152.435 33.6712L-150.898 40.8034L-148.575 47.5142L-145.527 53.81L-141.639 59.6309L-139.949 61.5696L-137.101 65.0569L-126.934 75.2068L-124.074 77.6879L-121.893 80.2295L-116.199 86.0107L-112.358 90.6702L-108.438 94.714L-107.586 95.8606L-106.216 97.3428L-102.965 101.212L-100.591 103.443L-97.963 106.325L-92.2074 111.217L-86.4466 115.733L-79.9382 120.001L-75.2962 122.578L-75.244 122.588L-75.1205 122.677L-72.8922 123.952L-65.4416 127.643L-60.4922 129.933L-50.5749 135.019L-48.398 135.985L-42.9903 138.634L-30.3114 144.129L-21.146 147.711L-18.5532 148.51L-11.8231 150.79L-9.56099 151.313L-2.3831 153.392L0.0488354 153.746L7.19816 155.487L10.118 155.896L19.6556 158.328L28.0744 161.406L34.9245 164.583L38.5214 166.565L42.4066 169.046L48.7496 173.34L55.2878 177.551L65.839 183.992L77.9971 192.381L86.4579 198.522L88.4992 200.134L92.3393 203.889L94.473 206.082L101.366 213.619L101.824 214.279L105.706 220.014L110.602 226.228L114.104 231.145L118.873 236.431L122.024 239.478L123.95 241.506L129.305 246.426C130.691 247.562 132.05 248.671 133.406 249.775L135.041 251.131L147.22 260.09L150.34 262.183L167.249 274.566L171.999 277.693L175.832 280.361L178.513 281.93L184.664 285.877L187.229 287.379L191.818 290.155L193.161 291.143L198.396 294.311L201.725 296.872L204.531 298.708L210.088 303.345L215.154 308.41L219.474 313.848L223.222 319.646L224.955 322.735L230.294 331.562L232.035 334.178L234.402 337.247L238.226 341.46L239.918 343.012L245.4 347.025L248.446 349.123L252.047 351.175L257.14 354.479L258.644 355.268L262.587 358.156L265.11 359.667L265.643 360.163L270.901 364.242L273.549 368.033L274.926 369.761L275.524 371.532L277.823 375.931L279.018 382.668L279.113 384.275L279.312 390.543L279.031 392.461L278.571 398.964L277.912 402.254L277.246 407.726L276.351 411.947L275.673 416.632L274.718 421.641L272.902 434.233L272.091 441.351L272.071 441.39L271.797 442.84L270.702 451.428L269.214 460.292L266.777 469.989L264.923 475.002L263.202 479.183L262.705 479.845L257.694 487.729L256.841 488.548C254.566 490.743 252.288 492.936 250.007 495.125L249.549 495.574L238.811 502.687L237.035 504.005L229.221 510.277L222.746 518.786L222.73 518.904L222.621 519.101L218.914 528.016L218.91 528.115L218.88 528.195L218.861 529.321L217.044 537.947L215.967 546.807L215.782 547.485L214.787 555.501L214.364 557.243L213.023 564.519L212.425 566.794L209.593 576.095L206.084 585.235L203.619 590.6L201.579 594.162L199.953 595.875L194.666 602.335L189.413 606.105L181.858 608.714L178.677 609.464L175.593 609.967L168.041 611.376L157.505 612.913L146.915 614.654L139.405 617.653L135.343 619.561L128.247 624.874L118.193 632.27L110.322 637.539L98.6035 643.405L93.806 645.954L86.4818 650.711L83.6823 653.494L82.1489 655.947L77.3653 662.133L74.9509 668.109L73.2211 671.24L71.6782 678.038L70.7316 680.615L70.7198 680.704L70.6894 680.778L70.0211 687.027L69.2548 690.412L69.1348 695.575L68.5542 700.402L68.5425 703.956L68.2429 712.145L68.5317 720.682L68.5309 727.951L68.6109 730.728L68.0597 736.15L67.9397 740.798L67.0016 744.679L66.528 750.382L64.9395 753.765L63.8679 759.674L58.853 765.179L57.4163 767.856L55.0555 768.851L53.5242 768.421L45.3577 768.012L42.8331 766.713L36.2644 764.321L34.8416 763.405L28.1685 759.283L18.8481 754.204L18.7725 754.187L18.7024 754.153L11.7929 752.733L9.30939 751.781L9.1661 751.791L9.04093 751.748L1.41489 752.647L-1.73946 753.488L-11.3463 759.49L-13.9738 761.38L-26.1453 769.368L-34.4148 773.473L-37.7776 774.882L-42.387 775.729L-48.4426 777.137L-56.1446 775.865L-57.9464 775.844L-68.0007 774.844L-68.627 774.976C-71.9475 775.673 -75.2764 776.366 -78.6047 777.056L-78.8005 777.107L-90.1076 781.623L-101.588 786.593L-112.651 793.054L-113.714 793.808L-121.115 801.017L-127.52 809.478L-128.744 811.709L-132.296 818.421L-135.449 827.783L-135.966 830.003L-137.959 839.153L-138.979 847.056L-139.179 847.814L-139.583 852.11L-140.201 856.442L-141.781 865.308L-141.777 866.655L-145.144 875.153L-145.152 875.266L-145.193 875.346L-145.218 875.63L-145.847 876.278L-147.117 876.248L-156.249 878.247L-161.12 876.491L-165.583 875.781L-170.308 873.836L-179.107 870.93L-183.98 869.125L-188.337 868.288L-193.487 866.723L-193.579 866.721L-193.656 866.698L-199.635 866.741L-203.822 866.354L-209.749 868.154L-215.496 871.385L-219.606 875.854L-221.493 879.26L-225.038 884.601L-228.267 891.197L-229.555 893.517L-234.171 902.283L-234.521 902.756L-239.999 910.962L-248.272 918.626L-259.016 921.521L-267.379 923.515L-269.961 924.056L-280.804 930.153L-281.999 931.057L-288.804 938.265L-292.697 944.335L-294.541 946.917L-299.481 955.638L-300.343 956.735L-305.25 964.129L-313.118 972.362L-313.98 972.584L-324.151 975.571L-334.043 975.936L-343.852 975.041L-345.098 974.741L-353.536 973.066L-355.617 972.792L-363.539 971.936L-370.043 973.063L-374.123 973.693L-377.363 975.063L-385.562 978.241L-397.432 984.597L-403.805 988.283L-409.841 992.918L-413.406 996.097L-415.022 999.035L-418.986 1004.87L-420.146 1010.05L-421.533 1014.09L-420.471 1014.37Z"/>
</svg>
